<?xml version="1.0" encoding="UTF-8" standalone="no"?>
<!-- Created with Inkscape (http://www.inkscape.org/) -->

<svg
   xmlns:dc="http://purl.org/dc/elements/1.1/"
   xmlns:cc="http://creativecommons.org/ns#"
   xmlns:rdf="http://www.w3.org/1999/02/22-rdf-syntax-ns#"
   xmlns:svg="http://www.w3.org/2000/svg"
   xmlns="http://www.w3.org/2000/svg"
   xmlns:sodipodi="http://sodipodi.sourceforge.net/DTD/sodipodi-0.dtd"
   xmlns:inkscape="http://www.inkscape.org/namespaces/inkscape"
   width="32"
   height="32"
   viewBox="0 0 8.4666667 8.4666667"
   version="1.1"
   id="svg4528"
   sodipodi:docname="glop.svg"
   inkscape:version="0.92.4 (5da689c313, 2019-01-14)">
  <defs
     id="defs4522" />
  <sodipodi:namedview
     id="base"
     pagecolor="#ffffff"
     bordercolor="#666666"
     borderopacity="1.0"
     inkscape:pageopacity="0.0"
     inkscape:pageshadow="2"
     inkscape:zoom="22.4"
     inkscape:cx="-8.1422783"
     inkscape:cy="16.257968"
     inkscape:document-units="px"
     inkscape:current-layer="layer2"
     showgrid="true"
     units="px"
     inkscape:window-width="1920"
     inkscape:window-height="1017"
     inkscape:window-x="1912"
     inkscape:window-y="-8"
     inkscape:window-maximized="1">
    <inkscape:grid
       type="xygrid"
       id="grid5073" />
  </sodipodi:namedview>
  <metadata
     id="metadata4525">
    <rdf:RDF>
      <cc:Work
         rdf:about="">
        <dc:format>image/svg+xml</dc:format>
        <dc:type
           rdf:resource="http://purl.org/dc/dcmitype/StillImage" />
        <dc:title />
      </cc:Work>
    </rdf:RDF>
  </metadata>
  <g
     inkscape:label="Calque 1"
     inkscape:groupmode="layer"
     id="layer1"
     transform="translate(0,-288.53333)" />
  <g
     inkscape:groupmode="layer"
     id="layer2"
     inkscape:label="Calque flèche">
    <path
       style="opacity:0.2;fill:#000000;fill-opacity:1;stroke:#000000;stroke-width:0.233;stroke-linecap:round;stroke-linejoin:round;stroke-miterlimit:4;stroke-dasharray:none;stroke-opacity:1;paint-order:normal"
       d="M 3.7108847,1.8541504 V 2.4236248 A 1.4552083,1.4552083 0 0 0 3.175,2.6458333 L 2.771924,2.2432739 2.3802166,2.6349813 2.7822591,3.0370239 A 1.4552083,1.4552083 0 0 0 2.5605674,3.5739421 H 1.9910931 v 0.554488 H 2.5605674 A 1.4552083,1.4552083 0 0 0 2.7832929,4.6643147 L 2.3802166,5.0673908 2.771924,5.4590982 3.1739666,5.0570555 A 1.4552083,1.4552083 0 0 0 3.7108847,5.2787474 V 5.8482217 H 4.2653728 V 5.2787474 A 1.4552083,1.4552083 0 0 0 4.8017742,5.056022 L 5.2043336,5.4590982 5.5960409,5.0673908 5.1939983,4.6653482 A 1.4552083,1.4552083 0 0 0 5.4156902,4.1284301 H 5.9851644 V 3.5739421 H 5.4156902 A 1.4552083,1.4552083 0 0 0 5.1929648,3.0380575 L 5.5960409,2.6349813 5.2043336,2.2432739 4.8022909,2.6453166 A 1.4552083,1.4552083 0 0 0 4.2653728,2.4236248 V 1.8541504 Z"
       id="path816"
       inkscape:connector-curvature="0" />
    <circle
       style="opacity:0.2;fill:#ffffff;fill-opacity:1;stroke:#000000;stroke-width:0.09805878;stroke-linecap:round;stroke-linejoin:round;stroke-miterlimit:4;stroke-dasharray:none;stroke-opacity:1;paint-order:normal"
       id="path816-5"
       cx="3.6829054"
       cy="4.318378"
       r="0.61242896" />
    <circle
       r="1.4552083"
       cy="8.2020836"
       cx="-3.0545199"
       id="circle833"
       style="opacity:0.2;fill:#000000;fill-opacity:1;stroke:#000000;stroke-width:0.233;stroke-linecap:round;stroke-linejoin:round;stroke-miterlimit:4;stroke-dasharray:none;stroke-opacity:1;paint-order:normal" />
    <circle
       r="0.61242896"
       cy="8.2020836"
       cx="-3.0545199"
       id="circle835"
       style="opacity:0.2;fill:#ffffff;fill-opacity:1;stroke:#000000;stroke-width:0.09805878;stroke-linecap:round;stroke-linejoin:round;stroke-miterlimit:4;stroke-dasharray:none;stroke-opacity:1;paint-order:normal" />
    <rect
       y="-4.3656249"
       x="1.6944764"
       height="3.9940655"
       width="0.55448222"
       id="rect845"
       style="opacity:0.2;fill:#000000;fill-opacity:1;stroke:#000000;stroke-width:0.23926778;stroke-linecap:round;stroke-linejoin:bevel;stroke-miterlimit:4;stroke-dasharray:none;stroke-opacity:1;paint-order:normal" />
    <rect
       transform="rotate(45)"
       style="opacity:0.2;fill:#000000;fill-opacity:1;stroke:#000000;stroke-width:0.23926778;stroke-linecap:round;stroke-linejoin:bevel;stroke-miterlimit:4;stroke-dasharray:none;stroke-opacity:1;paint-order:normal"
       id="rect847"
       width="0.55448222"
       height="3.9940655"
       x="-0.55787396"
       y="-5.0660954" />
    <rect
       transform="rotate(-45)"
       y="-2.2776656"
       x="2.7918212"
       height="3.9940655"
       width="0.55448222"
       id="rect849"
       style="opacity:0.2;fill:#000000;fill-opacity:1;stroke:#000000;stroke-width:0.23918334;stroke-linecap:round;stroke-linejoin:bevel;stroke-miterlimit:4;stroke-dasharray:none;stroke-opacity:1;paint-order:normal" />
    <rect
       transform="matrix(0,1,1,0,0,0)"
       style="opacity:0.2;fill:#000000;fill-opacity:1;stroke:#000000;stroke-width:0.23926778;stroke-linecap:round;stroke-linejoin:bevel;stroke-miterlimit:4;stroke-dasharray:none;stroke-opacity:1;paint-order:normal"
       id="rect851"
       width="0.55448222"
       height="3.9940655"
       x="-2.6458333"
       y="-0.025315508" />
    <path
       inkscape:connector-curvature="0"
       id="path865"
       d="m -3.6964152,1.5595948 v 0.5694744 a 1.4552083,1.4552083 0 0 0 -0.5358847,0.2222085 l -0.403076,-0.4025594 -0.3917074,0.3917074 0.4020425,0.4020426 a 1.4552083,1.4552083 0 0 0 -0.2216917,0.5369182 h -0.5694743 v 0.554488 h 0.5694743 A 1.4552083,1.4552083 0 0 0 -4.624007,4.3697591 L -5.0270833,4.7728353 -4.6353759,5.1645426 -4.2333333,4.7625 a 1.4552083,1.4552083 0 0 0 0.5369181,0.2216919 v 0.5694743 h 0.5544881 V 4.9841919 A 1.4552083,1.4552083 0 0 0 -2.6055257,4.7614665 L -2.2029663,5.1645426 -1.811259,4.7728353 -2.2133016,4.3707927 a 1.4552083,1.4552083 0 0 0 0.2216919,-0.5369182 h 0.5694742 V 3.2793865 H -1.9916097 A 1.4552083,1.4552083 0 0 0 -2.2143351,2.7435019 L -1.811259,2.3404257 -2.2029663,1.9487183 -2.605009,2.350761 A 1.4552083,1.4552083 0 0 0 -3.1419271,2.1290692 V 1.5595948 Z"
       style="opacity:0.2;fill:#000000;fill-opacity:1;stroke:#000000;stroke-width:0.233;stroke-linecap:round;stroke-linejoin:round;stroke-miterlimit:4;stroke-dasharray:none;stroke-opacity:1;paint-order:normal" />
    <circle
       r="0.61242896"
       cy="3.9266708"
       cx="-3.6616445"
       id="circle867"
       style="opacity:0.2;fill:#ffffff;fill-opacity:1;stroke:#000000;stroke-width:0.09805878;stroke-linecap:round;stroke-linejoin:round;stroke-miterlimit:4;stroke-dasharray:none;stroke-opacity:1;paint-order:normal" />
  </g>
</svg>
